<svg width="28" height="28" viewBox="0 0 28 28" fill="none" xmlns="http://www.w3.org/2000/svg">
<path fill-rule="evenodd" clip-rule="evenodd" d="M28 14C28 21.7309 21.7337 27.9983 14.0032 28C21.7325 27.9983 28 21.7297 28 14ZM14 28C6.26801 28 0 21.732 0 14C0 21.7308 6.2692 28 14 28ZM13.9984 8.86562e-08C6.26833 0.000861081 0 6.26973 0 14C0 6.26854 6.26715 0.000860788 13.9984 8.86562e-08ZM28 13.9968C27.9983 6.26747 21.7297 0 14 0C21.7309 0 27.9983 6.26629 28 13.9968ZM14 16.6797C15.48 16.6797 16.6797 15.48 16.6797 14C16.6797 12.52 15.48 11.3203 14 11.3203C12.52 11.3203 11.3203 12.52 11.3203 14C11.3203 15.48 12.52 16.6797 14 16.6797ZM20.2668 9.25888C20.138 8.90982 19.9325 8.59387 19.6655 8.33453C19.4062 8.0675 19.0904 7.862 18.7411 7.73318C18.4579 7.62317 18.0323 7.49222 17.2486 7.45654C16.4007 7.41788 16.1465 7.40955 14 7.40955C11.8533 7.40955 11.5991 7.41766 10.7514 7.45633C9.96765 7.49222 9.5419 7.62317 9.25885 7.73318C8.90958 7.862 8.59363 8.0675 8.3345 8.33453C8.06747 8.59387 7.86197 8.90961 7.73294 9.25888C7.62292 9.54214 7.49197 9.9679 7.4563 10.7517C7.41763 11.5993 7.4093 11.8535 7.4093 14.0002C7.4093 16.1467 7.41763 16.4009 7.4563 17.2488C7.49197 18.0326 7.62292 18.4581 7.73294 18.7414C7.86197 19.0907 8.06726 19.4064 8.33429 19.6657C8.59363 19.9328 8.90936 20.1383 9.25864 20.2671C9.5419 20.3773 9.96765 20.5083 10.7514 20.5439C11.5991 20.5826 11.8531 20.5907 13.9998 20.5907C16.1467 20.5907 16.4009 20.5826 17.2484 20.5439C18.0321 20.5083 18.4579 20.3773 18.7411 20.2671C19.4423 19.9966 19.9964 19.4425 20.2668 18.7414C20.3769 18.4581 20.5078 18.0326 20.5437 17.2488C20.5824 16.4009 20.5905 16.1467 20.5905 14.0002C20.5905 11.8535 20.5824 11.5993 20.5437 10.7517C20.508 9.9679 20.3771 9.54214 20.2668 9.25888ZM14 18.1281C11.72 18.1281 9.87173 16.28 9.87173 14C9.87173 11.72 11.72 9.87198 14 9.87198C16.2798 9.87198 18.1281 11.72 18.1281 14C18.1281 16.28 16.2798 18.1281 14 18.1281ZM18.2913 10.6735C17.7585 10.6735 17.3265 10.2415 17.3265 9.70877C17.3265 9.17599 17.7585 8.74405 18.2913 8.74405C18.824 8.74405 19.256 9.17599 19.256 9.70877C19.2558 10.2415 18.824 10.6735 18.2913 10.6735ZM21.6169 19.2658C21.8156 18.7544 21.9517 18.1701 21.9906 17.3144C22.0299 16.4571 22.0391 16.1832 22.0391 14C22.0391 11.8168 22.0299 11.5429 21.9908 10.6856C21.9517 9.82986 21.8158 9.24561 21.6169 8.73419C21.4153 8.19778 21.0987 7.71201 20.6898 7.31039C20.2882 6.90131 19.8022 6.58472 19.2658 6.38284C18.7544 6.18439 18.1701 6.04852 17.3144 6.00964C16.4571 5.97034 16.1832 5.96094 14 5.96094C11.8168 5.96094 11.5429 5.97034 10.6856 6.00943C9.82986 6.04852 9.24561 6.18439 8.73419 6.38306C8.19778 6.58493 7.71179 6.90131 7.31039 7.31039C6.90131 7.71179 6.58472 8.19778 6.38284 8.73419C6.18417 9.24561 6.04831 9.82986 6.00943 10.6856C5.97012 11.5429 5.96094 11.8168 5.96094 14C5.96094 16.1832 5.97012 16.4571 6.00964 17.3146C6.04852 18.1701 6.1846 18.7546 6.38327 19.2658C6.58514 19.8022 6.90152 20.2882 7.31039 20.6896C7.71201 21.0987 8.19778 21.4151 8.73441 21.6169C9.24561 21.8156 9.83008 21.9515 10.6856 21.9906C11.5431 22.0297 11.8168 22.0391 14.0002 22.0391C16.1834 22.0391 16.4573 22.0297 17.3146 21.9906C18.1701 21.9515 18.7546 21.8156 19.2658 21.6169C20.3457 21.1993 21.1993 20.3457 21.6169 19.2658Z" fill="currentColor"/>
</svg>
